<svg xmlns="http://www.w3.org/2000/svg" viewBox="0 0 390 1150">
  <style>
    #coinBag {
      animation: 1s shakeBag linear .4s;
    }
    #coinFirst,
    #coinSecond,
    #coinThird {
      transform: translate(0, -600px);

      animation: 1s fallDown linear forwards;
    }
    #coinFirst {
      animation-delay: .3s;
    }
    #coinSecond {
      animation-delay: .5s;
    }
    #coinThird {
      animation-delay: .6s;
    }
    @keyframes fallDown {
      from {
        transform: translate(0, -600px);
      }
      to {
        transform: translate(0, 1200px);
      }
    }
    @keyframes shakeBag {
      0%, 30%, 40%, 50%, 60%, 85%, 95% {
        transform: translate(0, 0);
      }
      35%, 55%, 90% {
        transform: translate(0, 20px);
      }
    }
  </style>
  <g id="coinBag" fill="#fff">
    <path d="M272.9,1050H117.1A117.1,117.1,0,0,1,8,890.4L48.6,786.3a5,5,0,0,1,4.7-3.2H336.8a5,5,0,0,1,4.7,3.2L382,890.4A117.1,117.1,0,0,1,272.9,1050ZM56.6,793.1,17.3,894.1A107.1,107.1,0,0,0,117.1,1040H272.9a107.1,107.1,0,0,0,99.8-145.9L333.4,793.1Z"/>
    <path d="M337.8,773.1H53.2a5,5,0,0,1,0-10H337.8a5,5,0,0,1,0,10Z"/>
    <path d="M143.5,773.2a5,5,0,0,1-4-2,44.1,44.1,0,1,1,70.9,0,5,5,0,1,1-8-6,34.1,34.1,0,1,0-54.8,0,5,5,0,0,1-4,8Z"/>
    <path d="M252.7,770.5a5,5,0,0,1-4.5-7.3,28,28,0,0,0,3-12.7A28.4,28.4,0,0,0,208.8,726a5,5,0,1,1-5-8.7,38.4,38.4,0,0,1,57.5,33.3,37.8,37.8,0,0,1-4.1,17.2A5,5,0,0,1,252.7,770.5Z"/>
    <path d="M119.5,851.5h-1a5,5,0,0,1-3.9-5.9l2.2-10.6a11.2,11.2,0,0,0-21.7-5,4.9,4.9,0,0,1-6.1,3.7,5,5,0,0,1-3.7-6.1,21.2,21.2,0,0,1,41.3,9.4l-2.2,10.6A5,5,0,0,1,119.5,851.5Z"/>
    <path d="M165.2,842.8h-.7a5,5,0,0,1-4.2-5.7l3.1-21.3a5,5,0,0,1,9.9,1.5l-3.1,21.3A5,5,0,0,1,165.2,842.8Z"/>
    <path d="M206.3,832.1a5,5,0,0,1-5-5V819a5,5,0,0,1,10,0v8.1A5,5,0,0,1,206.3,832.1Z"/>
    <path d="M260,892.4a5,5,0,0,1-5-4.4l-6.9-54.5a19.4,19.4,0,0,1,38.2-6.8l3.3,14.9a5,5,0,0,1-3.8,6,4.9,4.9,0,0,1-6-3.8l-3.3-14.9a9.4,9.4,0,0,0-18.5,3.3l6.9,54.5a5,5,0,0,1-4.3,5.6Z"/>
  </g>
  <clipPath id="clip">
    <path d="M390 0H0v763.1h142.4c-3.4-5.5-5.3-12-5.3-18.9 0-20 16.2-36.3 36.3-36.3 12.5 0 23.4 6.3 30 15.9 5.5-3.3 11.9-5.2 18.7-5.2 20 0 36.3 16.2 36.3 36.3 0 2.8-0.3 5.6-1 8.2H390V0z"/>
  </clipPath>
  <g clip-path="url(#clip)" fill="#fff">
    <g id="coinFirst">
      <path d="M149.1,595.4a57.6,57.6,0,1,1,57.6-57.6A57.7,57.7,0,0,1,149.1,595.4Zm0-105.3a47.6,47.6,0,1,0,47.6,47.6A47.7,47.7,0,0,0,149.1,490.1Z"/>
      <path d="M154.1,508.1H136.9v25.4h-4.5v6.6h4.5v5h-4.5v6.6h4.5V567h11V551.6h14.7v-6.6H147.9v-4.9h5.3q8.9,0,14.2-4.5a15,15,0,0,0,5.3-11.9Q172.6,508.1,154.1,508.1Zm-1.9,25.4h-4.3v-17h4.3q8.8,0,8.8,7.5C161,530.8,158.1,533.5,152.2,533.5Z"/>
    </g>
    <g id="coinSecond">
      <path d="M269.6,386.4c-15.9,0-24.2-29-24.2-57.6s8.3-57.6,24.2-57.6,24.2,29,24.2,57.6S285.4,386.4,269.6,386.4Zm0-105.3c-4.8,0-14.2,16.8-14.2,47.6s9.4,47.6,14.2,47.6,14.2-16.8,14.2-47.6S274.4,281.1,269.6,281.1Z"/>
      <path d="M243.4,386.4c-15.9,0-24.2-29-24.2-57.6s8.3-57.6,24.2-57.6a5,5,0,0,1,0,10c-4.8,0-14.2,16.8-14.2,47.6s9.4,47.6,14.2,47.6a5,5,0,0,1,0,10Z"/>
    </g>
    <g id="coinThird">
      <path d="M150.7,115.3c-15.9,0-24.2-29-24.2-57.6S134.8,0,150.7,0s24.2,29,24.2,57.6S166.6,115.3,150.7,115.3Zm0-105.3c-4.8,0-14.2,16.8-14.2,47.6s9.4,47.6,14.2,47.6,14.2-16.8,14.2-47.6S155.5,10,150.7,10Z"/>
      <path d="M176.8,115.3a5,5,0,1,1,0-10c4.8,0,14.2-16.8,14.2-47.6S181.6,10,176.8,10a5,5,0,1,1,0-10C192.7,0,201,29,201,57.6S192.7,115.3,176.8,115.3Z"/>
    </g>
  </g>
</svg>
